<svg width="25" height="25" viewBox="0 0 25 25" fill="none" xmlns="http://www.w3.org/2000/svg">
<path d="M18.7501 8.33335H17.7084V6.25002C17.7084 3.37502 15.3751 1.04169 12.5001 1.04169C9.62508 1.04169 7.29175 3.37502 7.29175 6.25002V8.33335H6.25008C5.10425 8.33335 4.16675 9.27085 4.16675 10.4167V20.8334C4.16675 21.9792 5.10425 22.9167 6.25008 22.9167H18.7501C19.8959 22.9167 20.8334 21.9792 20.8334 20.8334V10.4167C20.8334 9.27085 19.8959 8.33335 18.7501 8.33335ZM12.5001 17.7084C11.3542 17.7084 10.4167 16.7709 10.4167 15.625C10.4167 14.4792 11.3542 13.5417 12.5001 13.5417C13.6459 13.5417 14.5834 14.4792 14.5834 15.625C14.5834 16.7709 13.6459 17.7084 12.5001 17.7084ZM15.7292 8.33335H9.27091V6.25002C9.27091 4.46877 10.7188 3.02085 12.5001 3.02085C14.2813 3.02085 15.7292 4.46877 15.7292 6.25002V8.33335Z" fill="black"/>
</svg>
