<svg width="151" height="156" viewBox="0 0 151 156" fill="none" xmlns="http://www.w3.org/2000/svg">
<g clip-path="url(#clip0_2_152)">
<path d="M134.154 118.72L134.151 118.791L137.696 156H111.827L108.474 133.147L106.998 155.414L80.4324 155.121L83.2542 125.887L85.654 112.336V112.333L86.0141 110.294H133.449L133.511 111.033L134.154 118.72Z" fill="#2F2E41"/>
<path d="M65.7892 140.291C68.529 140.786 71.3858 137.724 72.1702 133.45C72.5135 131.58 72.4027 129.787 71.9399 128.321L72.36 125.858L79.4097 92.7183C79.4097 92.7183 92.3916 66.9428 92.3912 62.468C92.3909 57.9932 88.6359 55.7988 88.6359 55.7988L83.5547 55.8459L67.6204 94.4752L64.7507 123.021L64.2864 126.937C63.3325 128.147 62.592 129.785 62.2487 131.656C61.4643 135.929 63.0495 139.795 65.7892 140.291V140.291Z" fill="#FFB6B6"/>
<path d="M117.477 39.831L112.754 28.9905L97.4047 31.6274L96.3716 44.3815L117.477 39.831Z" fill="#FFB6B6"/>
<path opacity="0.1" d="M117.477 39.831L112.754 28.9905L97.4047 31.6274L96.3716 44.3815L117.477 39.831Z" fill="black"/>
<path d="M150.831 62.3909C150.831 62.3909 139.91 42.1749 137.844 40.124C136.924 39.211 135.478 39.1983 134.156 39.4644L118.953 34.2643L113.799 31.3903L113.46 36.858L96.5418 39.8721C96.6358 36.5377 97.1097 35.2694 97.1097 35.2694L90.911 42.4679L78.8089 48.3276L78.8155 48.3804C77.9274 48.6881 77.0854 49.2146 76.4475 50.0855C74.0861 53.3084 67.5923 92.5685 67.5923 92.5685L81.4655 95.4984L83.3535 83.7381L84.7124 94.3264L85.7455 114.103C85.7455 114.103 104.637 130.217 113.787 124.358C122.937 118.498 134.154 118.791 134.154 118.791L134.434 109.624C134.633 109.308 134.744 109.122 134.744 109.122L134.449 76.6054V67.9529C136.698 71.0625 139.412 73.7368 142.566 74.9894C152.898 79.0912 150.831 62.391 150.831 62.391V62.3909Z" fill="#282973"/>
<path d="M103.475 33.5347C111.274 33.5347 117.596 27.2595 117.596 19.5187C117.596 11.7779 111.274 5.50269 103.475 5.50269C95.6763 5.50269 89.3542 11.7779 89.3542 19.5187C89.3542 27.2595 95.6763 33.5347 103.475 33.5347Z" fill="#FFB6B6"/>
<path d="M113.605 23.4798C113.605 23.4798 114.833 19.214 117.596 19.5187C120.358 19.8234 120.972 17.3858 120.358 16.1671C119.745 14.9483 118.517 8.85436 118.517 8.85436C118.517 8.85436 119.131 4.58861 115.447 3.97922C111.763 3.36983 110.535 2.76044 109.921 1.54165C109.308 0.322869 100.098 -0.895915 97.0287 0.932263C93.959 2.76044 91.5032 6.26804 89.3544 7.2565C87.2056 8.24497 85.3638 10.0731 86.5916 13.1201C87.8195 16.1671 89.6003 22.1263 89.6003 22.1263C89.6003 22.1263 92.7311 21.0422 93.345 22.8704C93.959 24.6985 91.5032 22.261 94.5729 17.3858C97.6426 12.5107 97.6426 7.63557 102.554 9.46375C107.466 11.2919 112.991 10.6825 112.377 14.3389C111.763 17.9952 113.605 23.4798 113.605 23.4798V23.4798Z" fill="#2F2E41"/>
<path d="M112.742 134.593H5.50004C2.46726 134.593 0 132.144 0 129.134V72.5896C0 69.5796 2.46726 67.1304 5.50004 67.1304H112.742C115.774 67.1304 118.242 69.5796 118.242 72.5896V129.134C118.242 132.144 115.774 134.593 112.742 134.593V134.593Z" fill="white"/>
<path d="M112.742 134.593H5.50004C2.46726 134.593 0 132.144 0 129.134V72.5896C0 69.5796 2.46726 67.1304 5.50004 67.1304H112.742C115.774 67.1304 118.242 69.5796 118.242 72.5896V129.134C118.242 132.144 115.774 134.593 112.742 134.593V134.593ZM5.50004 68.042C2.97381 68.042 0.918466 70.0821 0.918466 72.5896V129.134C0.918466 131.641 2.97381 133.682 5.50004 133.682H112.742C115.268 133.682 117.323 131.641 117.323 129.134V72.5896C117.323 70.0821 115.268 68.042 112.742 68.042H5.50004Z" fill="#3F3D56"/>
<path d="M104.465 73.9678C105.225 73.9678 105.842 73.3556 105.842 72.6003C105.842 71.8451 105.225 71.2328 104.465 71.2328C103.704 71.2328 103.087 71.8451 103.087 72.6003C103.087 73.3556 103.704 73.9678 104.465 73.9678Z" fill="#3F3D56"/>
<path d="M108.138 73.9678C108.899 73.9678 109.516 73.3556 109.516 72.6003C109.516 71.8451 108.899 71.2328 108.138 71.2328C107.378 71.2328 106.761 71.8451 106.761 72.6003C106.761 73.3556 107.378 73.9678 108.138 73.9678Z" fill="#3F3D56"/>
<path d="M111.812 73.9678C112.573 73.9678 113.19 73.3556 113.19 72.6003C113.19 71.8451 112.573 71.2328 111.812 71.2328C111.051 71.2328 110.435 71.8451 110.435 72.6003C110.435 73.3556 111.051 73.9678 111.812 73.9678Z" fill="#3F3D56"/>
<path d="M7.80702 94.7081C7.42716 94.7081 7.11816 95.0148 7.11816 95.3918C7.11816 95.5757 7.1897 95.7457 7.31953 95.8712C7.45048 96.0043 7.62202 96.0756 7.80702 96.0756H110.894C111.274 96.0756 111.583 95.7689 111.583 95.3918C111.583 95.208 111.511 95.0379 111.381 94.9124C111.25 94.7793 111.079 94.7081 110.894 94.7081H7.80702Z" fill="#E6E6E6"/>
<path d="M98.0352 94.4802V96.3035H7.8069C7.55433 96.3035 7.32471 96.2032 7.15939 96.0345C6.98945 95.8704 6.88843 95.6425 6.88843 95.3918C6.88843 94.8904 7.30175 94.4802 7.80689 94.4802H98.0352Z" fill="#85E0A3"/>
<path d="M109.746 91.0614H100.561C99.5482 91.0614 98.7241 90.2437 98.7241 89.2381C98.7241 88.2325 99.5482 87.4148 100.561 87.4148H109.746C110.759 87.4148 111.583 88.2325 111.583 89.2381C111.583 90.2437 110.759 91.0614 109.746 91.0614Z" fill="#85E0A3"/>
<path d="M49.5862 81.489H8.49587C7.483 81.489 6.65894 80.6713 6.65894 79.6657C6.65894 78.6601 7.483 77.8423 8.49587 77.8423H49.5862C50.5991 77.8423 51.4231 78.6601 51.4231 79.6657C51.4231 80.6713 50.5991 81.489 49.5862 81.489Z" fill="#85E0A3"/>
<path d="M7.80702 115.22C7.42716 115.22 7.11816 115.527 7.11816 115.904C7.11816 116.088 7.1897 116.258 7.31953 116.384C7.45048 116.517 7.62202 116.588 7.80702 116.588H110.894C111.274 116.588 111.583 116.281 111.583 115.904C111.583 115.72 111.511 115.55 111.381 115.425C111.25 115.292 111.079 115.22 110.894 115.22H7.80702Z" fill="#E6E6E6"/>
<path d="M62.6742 114.992V116.816H7.8069C7.55433 116.816 7.32471 116.716 7.15939 116.547C6.98945 116.383 6.88843 116.155 6.88843 115.904C6.88843 115.403 7.30175 114.992 7.80689 114.992H62.6742Z" fill="#85E0A3"/>
<path d="M109.746 111.574H100.561C99.5482 111.574 98.7241 110.756 98.7241 109.75C98.7241 108.745 99.5482 107.927 100.561 107.927H109.746C110.759 107.927 111.583 108.745 111.583 109.75C111.583 110.756 110.759 111.574 109.746 111.574Z" fill="#85E0A3"/>
<path d="M125.825 34.6136C133.768 34.6136 140.208 28.3566 140.208 20.6382C140.208 12.9198 133.768 6.66284 125.825 6.66284C117.882 6.66284 111.442 12.9198 111.442 20.6382C111.442 28.3566 117.882 34.6136 125.825 34.6136Z" fill="#85E0A3"/>
<path d="M130.706 13.5889C128.792 17.0497 126.877 20.5105 124.962 23.9714C123.742 21.8311 122.528 19.6871 121.305 17.5485C120.882 16.8099 119.733 17.4742 120.156 18.2146C121.575 20.6937 122.978 23.1811 124.396 25.6602C124.639 26.0841 125.304 26.0939 125.544 25.6602C127.648 21.8585 129.751 18.0568 131.855 14.2551C132.267 13.5101 131.119 12.8434 130.706 13.5889V13.5889Z" fill="white"/>
<path d="M145.68 57.4756L131.35 50.6715C131.35 50.6715 130.774 46.1174 128.087 44.493C127.63 43.4112 127.104 42.2227 126.627 41.2809C125.446 38.952 127.217 34.5573 125.742 34.5573C124.266 34.5573 122.084 39.1792 122.199 40.417C122.288 41.3671 123.079 43.0259 123.243 44.478C121.443 45.1517 119.991 46.3065 119.037 47.226C118.21 48.0216 117.904 49.2087 118.226 50.3054C119.162 53.4835 121.5 60.047 124.856 60.047C129.284 60.047 130.464 59.1681 130.464 59.1681C130.464 59.1681 139.615 70.5945 146.404 71.4735C153.193 72.3525 145.68 57.4756 145.68 57.4756V57.4756Z" fill="#FFB6B6"/>
</g>
<defs>
<clipPath id="clip0_2_152">
<rect width="151" height="156" fill="white"/>
</clipPath>
</defs>
</svg>
